<mxfile host="app.diagrams.net" modified="2020-11-15T18:05:32.090Z" agent="5.0 (Windows NT 10.0; Win64; x64) AppleWebKit/537.36 (KHTML, like Gecko) Chrome/86.0.4240.198 Safari/537.36" etag="ylW86HL1v-ShdkZXkUUa" version="13.8.7" type="github">
  <diagram id="wh654Qr2-5SnCUR2Tobs" name="Page-1">
    <mxGraphModel dx="1185" dy="635" grid="1" gridSize="10" guides="1" tooltips="1" connect="1" arrows="1" fold="1" page="0" pageScale="1" pageWidth="827" pageHeight="1169" math="0" shadow="0">
      <root>
        <mxCell id="0" />
        <mxCell id="1" parent="0" />
        <mxCell id="6VOHFPRMsuRk---Nm0o_-1" value=":Survey&amp;nbsp;&lt;br&gt;Controller" style="shape=umlLifeline;perimeter=lifelinePerimeter;whiteSpace=wrap;html=1;container=1;collapsible=0;recursiveResize=0;outlineConnect=0;rounded=1;shadow=0;comic=0;labelBackgroundColor=none;strokeWidth=1;fontFamily=Verdana;fontSize=12;align=center;" parent="1" vertex="1">
          <mxGeometry x="318" y="90" width="100" height="580" as="geometry" />
        </mxCell>
        <mxCell id="6VOHFPRMsuRk---Nm0o_-2" value="" style="html=1;points=[];perimeter=orthogonalPerimeter;rounded=0;shadow=0;comic=0;labelBackgroundColor=none;strokeWidth=1;fontFamily=Verdana;fontSize=12;align=center;" parent="6VOHFPRMsuRk---Nm0o_-1" vertex="1">
          <mxGeometry x="45" y="100" width="10" height="400" as="geometry" />
        </mxCell>
        <mxCell id="6VOHFPRMsuRk---Nm0o_-3" value=":DBMgr" style="shape=umlLifeline;perimeter=lifelinePerimeter;whiteSpace=wrap;html=1;container=1;collapsible=0;recursiveResize=0;outlineConnect=0;rounded=1;shadow=0;comic=0;labelBackgroundColor=none;strokeWidth=1;fontFamily=Verdana;fontSize=12;align=center;" parent="1" vertex="1">
          <mxGeometry x="478" y="90" width="100" height="580" as="geometry" />
        </mxCell>
        <mxCell id="6VOHFPRMsuRk---Nm0o_-4" value="" style="html=1;points=[];perimeter=orthogonalPerimeter;rounded=0;shadow=0;comic=0;labelBackgroundColor=none;strokeWidth=1;fontFamily=Verdana;fontSize=12;align=center;" parent="6VOHFPRMsuRk---Nm0o_-3" vertex="1">
          <mxGeometry x="45" y="230" width="10" height="50" as="geometry" />
        </mxCell>
        <mxCell id="6VOHFPRMsuRk---Nm0o_-10" value="" style="html=1;points=[];perimeter=orthogonalPerimeter;rounded=0;shadow=0;comic=0;labelBackgroundColor=none;strokeWidth=1;fontFamily=Verdana;fontSize=12;align=center;" parent="6VOHFPRMsuRk---Nm0o_-3" vertex="1">
          <mxGeometry x="45" y="370" width="10" height="50" as="geometry" />
        </mxCell>
        <mxCell id="6VOHFPRMsuRk---Nm0o_-7" value="s:Student" style="shape=umlLifeline;perimeter=lifelinePerimeter;whiteSpace=wrap;html=1;container=1;collapsible=0;recursiveResize=0;outlineConnect=0;rounded=1;shadow=0;comic=0;labelBackgroundColor=none;strokeWidth=1;fontFamily=Verdana;fontSize=12;align=center;" parent="1" vertex="1">
          <mxGeometry x="618" y="90" width="100" height="580" as="geometry" />
        </mxCell>
        <mxCell id="6VOHFPRMsuRk---Nm0o_-25" value="" style="html=1;points=[];perimeter=orthogonalPerimeter;rounded=0;shadow=0;comic=0;labelBackgroundColor=none;strokeWidth=1;fontFamily=Verdana;fontSize=12;align=center;" parent="6VOHFPRMsuRk---Nm0o_-7" vertex="1">
          <mxGeometry x="45" y="130" width="10" height="40" as="geometry" />
        </mxCell>
        <mxCell id="6VOHFPRMsuRk---Nm0o_-8" value=":Survey&lt;br&gt;GUI" style="shape=umlLifeline;perimeter=lifelinePerimeter;whiteSpace=wrap;html=1;container=1;collapsible=0;recursiveResize=0;outlineConnect=0;rounded=1;shadow=0;comic=0;labelBackgroundColor=none;strokeWidth=1;fontFamily=Verdana;fontSize=12;align=center;" parent="1" vertex="1">
          <mxGeometry x="178" y="90" width="100" height="580" as="geometry" />
        </mxCell>
        <mxCell id="6VOHFPRMsuRk---Nm0o_-9" value="" style="html=1;points=[];perimeter=orthogonalPerimeter;rounded=0;shadow=0;comic=0;labelBackgroundColor=none;strokeWidth=1;fontFamily=Verdana;fontSize=12;align=center;" parent="6VOHFPRMsuRk---Nm0o_-8" vertex="1">
          <mxGeometry x="45" y="100" width="10" height="440" as="geometry" />
        </mxCell>
        <mxCell id="6VOHFPRMsuRk---Nm0o_-11" value="msg:=newRecord&lt;br&gt;(&lt;font face=&quot;helvetica&quot;&gt;&lt;span style=&quot;background-color: rgb(255 , 255 , 255)&quot;&gt;survey response&lt;/span&gt;&lt;/font&gt;)" style="html=1;verticalAlign=bottom;endArrow=block;labelBackgroundColor=none;fontFamily=Verdana;fontSize=11;edgeStyle=elbowEdgeStyle;elbow=vertical;exitX=1.048;exitY=0.045;exitDx=0;exitDy=0;exitPerimeter=0;" parent="1" source="6VOHFPRMsuRk---Nm0o_-9" target="6VOHFPRMsuRk---Nm0o_-2" edge="1">
          <mxGeometry relative="1" as="geometry">
            <mxPoint x="248" y="200.06" as="sourcePoint" />
            <mxPoint x="338" y="200.06" as="targetPoint" />
            <Array as="points">
              <mxPoint x="248" y="210" />
            </Array>
          </mxGeometry>
        </mxCell>
        <mxCell id="6VOHFPRMsuRk---Nm0o_-12" value="removeDuplicate(s)" style="html=1;verticalAlign=bottom;endArrow=block;labelBackgroundColor=none;fontFamily=Verdana;fontSize=12;edgeStyle=elbowEdgeStyle;elbow=vertical;" parent="1" source="6VOHFPRMsuRk---Nm0o_-2" target="6VOHFPRMsuRk---Nm0o_-4" edge="1">
          <mxGeometry x="0.0267" relative="1" as="geometry">
            <mxPoint x="374" y="260" as="sourcePoint" />
            <mxPoint x="520" y="230" as="targetPoint" />
            <mxPoint as="offset" />
            <Array as="points">
              <mxPoint x="440" y="340" />
              <mxPoint x="410" y="290" />
              <mxPoint x="380" y="260" />
            </Array>
          </mxGeometry>
        </mxCell>
        <mxCell id="6VOHFPRMsuRk---Nm0o_-13" value="" style="shape=umlLifeline;participant=umlActor;perimeter=lifelinePerimeter;whiteSpace=wrap;html=1;container=1;collapsible=0;recursiveResize=0;verticalAlign=top;spacingTop=36;outlineConnect=0;" parent="1" vertex="1">
          <mxGeometry x="50" y="135" width="25" height="490" as="geometry" />
        </mxCell>
        <mxCell id="6VOHFPRMsuRk---Nm0o_-14" value="Student" style="text;html=1;strokeColor=none;fillColor=none;align=center;verticalAlign=middle;whiteSpace=wrap;rounded=0;" parent="1" vertex="1">
          <mxGeometry x="133" y="140" width="30" height="40" as="geometry" />
        </mxCell>
        <mxCell id="6VOHFPRMsuRk---Nm0o_-15" value="&amp;lt;&amp;lt;survey response&amp;gt;&amp;gt;" style="html=1;verticalAlign=bottom;endArrow=block;entryX=-0.159;entryY=0.002;entryDx=0;entryDy=0;entryPerimeter=0;" parent="1" source="6VOHFPRMsuRk---Nm0o_-13" target="6VOHFPRMsuRk---Nm0o_-9" edge="1">
          <mxGeometry x="-0.0609" width="80" relative="1" as="geometry">
            <mxPoint x="133" y="190" as="sourcePoint" />
            <mxPoint x="193" y="190" as="targetPoint" />
            <mxPoint as="offset" />
          </mxGeometry>
        </mxCell>
        <mxCell id="6VOHFPRMsuRk---Nm0o_-16" value="&amp;lt;&amp;lt;msg:= &lt;br&gt;TRL value, manual uploading&amp;gt;&amp;gt;" style="html=1;verticalAlign=bottom;endArrow=open;dashed=1;endSize=8;exitX=-0.067;exitY=0.955;exitDx=0;exitDy=0;exitPerimeter=0;" parent="1" source="6VOHFPRMsuRk---Nm0o_-9" target="6VOHFPRMsuRk---Nm0o_-13" edge="1">
          <mxGeometry x="0.028" y="-10" relative="1" as="geometry">
            <mxPoint x="213" y="610" as="sourcePoint" />
            <mxPoint x="133" y="610" as="targetPoint" />
            <mxPoint as="offset" />
          </mxGeometry>
        </mxCell>
        <mxCell id="6VOHFPRMsuRk---Nm0o_-19" value="storeToDBFile(s)" style="html=1;verticalAlign=bottom;endArrow=block;labelBackgroundColor=none;fontFamily=Verdana;fontSize=12;edgeStyle=elbowEdgeStyle;elbow=vertical;" parent="1" source="6VOHFPRMsuRk---Nm0o_-2" target="6VOHFPRMsuRk---Nm0o_-10" edge="1">
          <mxGeometry x="-0.0227" relative="1" as="geometry">
            <mxPoint x="380.2800000000002" y="413.65999999999985" as="sourcePoint" />
            <Array as="points">
              <mxPoint x="450" y="480" />
              <mxPoint x="450" y="414" />
              <mxPoint x="520" y="390" />
              <mxPoint x="540" y="350" />
              <mxPoint x="458" y="320" />
            </Array>
            <mxPoint x="570" y="390.00000000000006" as="targetPoint" />
            <mxPoint as="offset" />
          </mxGeometry>
        </mxCell>
        <mxCell id="6VOHFPRMsuRk---Nm0o_-20" value="Students fill out and submit survey Diagram" style="text;align=center;fontStyle=1;verticalAlign=middle;spacingLeft=3;spacingRight=3;strokeColor=none;rotatable=0;points=[[0,0.5],[1,0.5]];portConstraint=eastwest;fontSize=18;" parent="1" vertex="1">
          <mxGeometry x="400" y="40" width="100" height="26" as="geometry" />
        </mxCell>
        <mxCell id="6VOHFPRMsuRk---Nm0o_-21" value="trl:TRL" style="shape=umlLifeline;perimeter=lifelinePerimeter;whiteSpace=wrap;html=1;container=1;collapsible=0;recursiveResize=0;outlineConnect=0;rounded=1;shadow=0;comic=0;labelBackgroundColor=none;strokeWidth=1;fontFamily=Verdana;fontSize=12;align=center;" parent="1" vertex="1">
          <mxGeometry x="740" y="90" width="100" height="580" as="geometry" />
        </mxCell>
        <mxCell id="6VOHFPRMsuRk---Nm0o_-22" value="trl:=TRL&lt;br&gt;(&lt;font face=&quot;helvetica&quot;&gt;&lt;span style=&quot;background-color: rgb(255 , 255 , 255)&quot;&gt;survey response&lt;/span&gt;&lt;/font&gt;)" style="html=1;verticalAlign=bottom;endArrow=block;labelBackgroundColor=none;fontFamily=Verdana;fontSize=12;edgeStyle=elbowEdgeStyle;elbow=vertical;" parent="1" source="6VOHFPRMsuRk---Nm0o_-2" target="6VOHFPRMsuRk---Nm0o_-21" edge="1">
          <mxGeometry x="0.0267" relative="1" as="geometry">
            <mxPoint x="400" y="200" as="sourcePoint" />
            <mxPoint x="550" y="200" as="targetPoint" />
            <mxPoint as="offset" />
            <Array as="points">
              <mxPoint x="407" y="200" />
            </Array>
          </mxGeometry>
        </mxCell>
        <mxCell id="6VOHFPRMsuRk---Nm0o_-24" value="s:Student(survey response)" style="html=1;verticalAlign=bottom;endArrow=block;labelBackgroundColor=none;fontFamily=Verdana;fontSize=12;edgeStyle=elbowEdgeStyle;elbow=vertical;entryX=-0.029;entryY=0.251;entryDx=0;entryDy=0;entryPerimeter=0;exitX=0.976;exitY=0.1;exitDx=0;exitDy=0;exitPerimeter=0;" parent="1" source="6VOHFPRMsuRk---Nm0o_-2" target="6VOHFPRMsuRk---Nm0o_-25" edge="1">
          <mxGeometry x="0.1318" relative="1" as="geometry">
            <mxPoint x="372" y="230" as="sourcePoint" />
            <Array as="points">
              <mxPoint x="388" y="230" />
              <mxPoint x="583" y="196.34000000000003" />
              <mxPoint x="603" y="156.34000000000003" />
              <mxPoint x="521" y="126.34000000000003" />
            </Array>
            <mxPoint x="660" y="230" as="targetPoint" />
            <mxPoint as="offset" />
          </mxGeometry>
        </mxCell>
        <mxCell id="aBTEvjV_1ocebEFRAV-k-1" value="s.setTRL(trl)" style="html=1;verticalAlign=bottom;endArrow=block;labelBackgroundColor=none;fontFamily=Verdana;fontSize=12;edgeStyle=elbowEdgeStyle;elbow=vertical;entryX=-0.023;entryY=0.751;entryDx=0;entryDy=0;entryPerimeter=0;" edge="1" parent="1" target="6VOHFPRMsuRk---Nm0o_-25">
          <mxGeometry x="1" y="-93" relative="1" as="geometry">
            <mxPoint x="373" y="250" as="sourcePoint" />
            <Array as="points">
              <mxPoint x="395.24" y="250" />
              <mxPoint x="590.24" y="216.34000000000003" />
              <mxPoint x="610.24" y="176.34000000000003" />
              <mxPoint x="528.24" y="146.34000000000003" />
            </Array>
            <mxPoint x="660" y="250" as="targetPoint" />
            <mxPoint as="offset" />
          </mxGeometry>
        </mxCell>
      </root>
    </mxGraphModel>
  </diagram>
</mxfile>
